<?xml version="1.0" encoding="UTF-8" standalone="no"?>
<svg width="1633px" height="1793px" viewBox="0 0 1633 1793" version="1.1" xmlns="http://www.w3.org/2000/svg" xmlns:xlink="http://www.w3.org/1999/xlink" xmlns:sketch="http://www.bohemiancoding.com/sketch/ns">
    <!-- Generator: Sketch 3.3.3 (12072) - http://www.bohemiancoding.com/sketch -->
    <title>Untitled</title>
    <desc>Created with Sketch.</desc>
    <defs></defs>
    <g id="Page-1" stroke="none" stroke-width="1" fill="none" fill-rule="evenodd" sketch:type="MSPage">
        <g id="hand" sketch:type="MSLayerGroup" fill="#000000">
            <g transform="translate(816.474580, 896.237300) scale(1, -1) translate(-816.474580, -896.237300) translate(0.474580, 0.237300)" sketch:type="MSShapeGroup">
                <path d="M880,1664 C849.333333,1664 823,1653 801,1631 C779,1609 768,1582.66667 768,1552 L768,896 L736,896 L736,1424 C736,1454.66667 725,1481 703,1503 C681,1525 654.666667,1536 624,1536 C593.333333,1536 567,1525 545,1503 C523,1481 512,1454.66667 512,1424 L512,896 L512,640 L358,845 C332.666667,879 298.666667,896 256,896 C220.666667,896 190.5,883.5 165.5,858.5 C140.5,833.5 128,803.333333 128,768 C128,739.333333 136.666667,713.666667 154,691 L538,179 C563.333333,145 597.333333,128 640,128 L1328,128 C1350.66667,128 1371,135.333333 1389,150 C1407,164.666667 1418.33333,183.333333 1423,206 L1499,611 C1502.33333,632.333333 1504,652 1504,670 L1504,1168 C1504,1198.66667 1493,1225 1471,1247 C1449,1269 1422.66667,1280 1392,1280 C1361.33333,1280 1335,1269 1313,1247 C1291,1225 1280,1198.66667 1280,1168 L1280,896 L1248,896 L1248,1424 C1248,1454.66667 1237,1481 1215,1503 C1193,1525 1166.66667,1536 1136,1536 C1105.33333,1536 1079,1525 1057,1503 C1035,1481 1024,1454.66667 1024,1424 L1024,896 L992,896 L992,1552 C992,1582.66667 981,1609 959,1631 C937,1653 910.666667,1664 880,1664 L880,1664 Z M880,1792 C925.333333,1792 967.166667,1780.16667 1005.5,1756.5 C1043.83333,1732.83333 1073.33333,1700.66667 1094,1660 C1106.66667,1662.66667 1120.66667,1664 1136,1664 C1202,1664 1258.5,1640.5 1305.5,1593.5 C1352.5,1546.5 1376,1490 1376,1424 L1376,1407 C1446,1411 1506.16667,1389.66667 1556.5,1343 C1606.83333,1296.33333 1632,1238 1632,1168 L1632,670 C1632,643.333333 1629.33333,615.666667 1624,587 L1548,183 C1538.66667,130.333333 1513.16667,86.6666667 1471.5,52 C1429.83333,17.3333333 1382,0 1328,0 L640,0 C600,0 561.833333,9.16666667 525.5,27.5 C489.166667,45.8333333 459,70.6666667 435,102 L51,614 C17,659.333333 1.13686838e-13,710.666667 1.13686838e-13,768 C1.13686838e-13,838.666667 25,899 75,949 C125,999 185.333333,1024 256,1024 C308,1024 350.666667,1012.66667 384,990 L384,1424 C384,1490 407.5,1546.5 454.5,1593.5 C501.5,1640.5 558,1664 624,1664 C639.333333,1664 653.333333,1662.66667 666,1660 C686.666667,1700.66667 716.166667,1732.83333 754.5,1756.5 C792.833333,1780.16667 834.666667,1792 880,1792 L880,1792 Z"></path>
            </g>
        </g>
    </g>
</svg>